<mxfile host="app.diagrams.net" agent="Mozilla/5.0 (Windows NT 10.0; Win64; x64) AppleWebKit/537.36 (KHTML, like Gecko) Chrome/131.0.0.0 Safari/537.36 Edg/131.0.0.0" version="25.0.3">
  <diagram name="第 1 页" id="zGNT4MXt-EGyTuMXfkjc">
    <mxGraphModel dx="784" dy="1133" grid="1" gridSize="10" guides="1" tooltips="1" connect="1" arrows="1" fold="1" page="1" pageScale="1" pageWidth="5000" pageHeight="5000" math="0" shadow="0">
      <root>
        <mxCell id="0" />
        <mxCell id="1" parent="0" />
        <mxCell id="ZGu-O0sLSK0A9CxHylOs-9" style="edgeStyle=orthogonalEdgeStyle;rounded=0;orthogonalLoop=1;jettySize=auto;html=1;fontSize=16;" edge="1" parent="1" source="ZGu-O0sLSK0A9CxHylOs-1" target="ZGu-O0sLSK0A9CxHylOs-8">
          <mxGeometry relative="1" as="geometry" />
        </mxCell>
        <mxCell id="ZGu-O0sLSK0A9CxHylOs-1" value="" style="rounded=0;whiteSpace=wrap;html=1;fontSize=16;" vertex="1" parent="1">
          <mxGeometry x="150" y="100" width="460" height="140" as="geometry" />
        </mxCell>
        <mxCell id="ZGu-O0sLSK0A9CxHylOs-2" value="设置教师" style="rounded=0;whiteSpace=wrap;html=1;fontSize=16;" vertex="1" parent="1">
          <mxGeometry x="171" y="120" width="120" height="40" as="geometry" />
        </mxCell>
        <mxCell id="ZGu-O0sLSK0A9CxHylOs-3" value="设置时间" style="rounded=0;whiteSpace=wrap;html=1;fontSize=16;" vertex="1" parent="1">
          <mxGeometry x="171" y="180" width="120" height="40" as="geometry" />
        </mxCell>
        <mxCell id="ZGu-O0sLSK0A9CxHylOs-4" value="设置课程" style="rounded=0;whiteSpace=wrap;html=1;fontSize=16;" vertex="1" parent="1">
          <mxGeometry x="471" y="120" width="120" height="40" as="geometry" />
        </mxCell>
        <mxCell id="ZGu-O0sLSK0A9CxHylOs-5" value="设置优先级" style="rounded=0;whiteSpace=wrap;html=1;fontSize=16;" vertex="1" parent="1">
          <mxGeometry x="321" y="180" width="120" height="40" as="geometry" />
        </mxCell>
        <mxCell id="ZGu-O0sLSK0A9CxHylOs-6" value="设置教师" style="rounded=0;whiteSpace=wrap;html=1;fontSize=16;" vertex="1" parent="1">
          <mxGeometry x="321" y="120" width="120" height="40" as="geometry" />
        </mxCell>
        <mxCell id="ZGu-O0sLSK0A9CxHylOs-7" value="设置学分" style="rounded=0;whiteSpace=wrap;html=1;fontSize=16;" vertex="1" parent="1">
          <mxGeometry x="471" y="180" width="120" height="40" as="geometry" />
        </mxCell>
        <mxCell id="ZGu-O0sLSK0A9CxHylOs-13" style="edgeStyle=orthogonalEdgeStyle;rounded=0;orthogonalLoop=1;jettySize=auto;html=1;fontSize=16;" edge="1" parent="1" source="ZGu-O0sLSK0A9CxHylOs-8" target="ZGu-O0sLSK0A9CxHylOs-10">
          <mxGeometry relative="1" as="geometry">
            <Array as="points">
              <mxPoint x="380" y="370" />
              <mxPoint x="220" y="370" />
            </Array>
          </mxGeometry>
        </mxCell>
        <mxCell id="ZGu-O0sLSK0A9CxHylOs-14" style="edgeStyle=orthogonalEdgeStyle;rounded=0;orthogonalLoop=1;jettySize=auto;html=1;entryX=0.5;entryY=0;entryDx=0;entryDy=0;fontSize=16;" edge="1" parent="1" source="ZGu-O0sLSK0A9CxHylOs-8" target="ZGu-O0sLSK0A9CxHylOs-12">
          <mxGeometry relative="1" as="geometry">
            <Array as="points">
              <mxPoint x="380" y="370" />
              <mxPoint x="540" y="370" />
            </Array>
          </mxGeometry>
        </mxCell>
        <mxCell id="ZGu-O0sLSK0A9CxHylOs-8" value="排课" style="rounded=1;whiteSpace=wrap;html=1;fontSize=16;" vertex="1" parent="1">
          <mxGeometry x="320" y="300" width="120" height="40" as="geometry" />
        </mxCell>
        <mxCell id="ZGu-O0sLSK0A9CxHylOs-15" style="edgeStyle=orthogonalEdgeStyle;rounded=0;orthogonalLoop=1;jettySize=auto;html=1;fontSize=16;" edge="1" parent="1" source="ZGu-O0sLSK0A9CxHylOs-10" target="ZGu-O0sLSK0A9CxHylOs-12">
          <mxGeometry relative="1" as="geometry" />
        </mxCell>
        <mxCell id="ZGu-O0sLSK0A9CxHylOs-17" style="edgeStyle=orthogonalEdgeStyle;rounded=0;orthogonalLoop=1;jettySize=auto;html=1;entryX=0.5;entryY=0;entryDx=0;entryDy=0;fontSize=16;" edge="1" parent="1" source="ZGu-O0sLSK0A9CxHylOs-10" target="ZGu-O0sLSK0A9CxHylOs-16">
          <mxGeometry relative="1" as="geometry">
            <Array as="points">
              <mxPoint x="220" y="500" />
              <mxPoint x="381" y="500" />
            </Array>
          </mxGeometry>
        </mxCell>
        <mxCell id="ZGu-O0sLSK0A9CxHylOs-10" value="查看排课结果" style="rounded=0;whiteSpace=wrap;html=1;fontSize=16;" vertex="1" parent="1">
          <mxGeometry x="160" y="400" width="120" height="40" as="geometry" />
        </mxCell>
        <mxCell id="ZGu-O0sLSK0A9CxHylOs-18" style="edgeStyle=orthogonalEdgeStyle;rounded=0;orthogonalLoop=1;jettySize=auto;html=1;entryX=0.5;entryY=0;entryDx=0;entryDy=0;fontSize=16;" edge="1" parent="1" source="ZGu-O0sLSK0A9CxHylOs-12" target="ZGu-O0sLSK0A9CxHylOs-16">
          <mxGeometry relative="1" as="geometry">
            <Array as="points">
              <mxPoint x="540" y="500" />
              <mxPoint x="381" y="500" />
            </Array>
          </mxGeometry>
        </mxCell>
        <mxCell id="ZGu-O0sLSK0A9CxHylOs-12" value="手动调整" style="rounded=0;whiteSpace=wrap;html=1;fontSize=16;" vertex="1" parent="1">
          <mxGeometry x="480" y="400" width="120" height="40" as="geometry" />
        </mxCell>
        <mxCell id="ZGu-O0sLSK0A9CxHylOs-16" value="完成" style="rounded=0;whiteSpace=wrap;html=1;fontSize=16;" vertex="1" parent="1">
          <mxGeometry x="321" y="540" width="120" height="40" as="geometry" />
        </mxCell>
      </root>
    </mxGraphModel>
  </diagram>
</mxfile>
